<svg xmlns="http://www.w3.org/2000/svg" viewBox="0 0 32 32">
  <!-- Dark background matching the site -->
  <rect width="32" height="32" rx="4" fill="#1a1a2e"/>
  
  <!-- Kata logo scaled and centered -->
  <g transform="translate(-27, -2) scale(0.75)">
    <path d="M70.925 25.22L58.572 37.523 46.27 25.22l2.192-2.192 10.11 10.11 10.11-10.11zm-6.575-.2l-3.188-3.188 3.188-3.188 3.188 3.188zm-4.93-2.54l3.736 3.736-3.736 3.736zm-1.694 7.422l-8.07-8.07 8.07-8.07zm1.694-16.14l3.686 3.686-3.686 3.686zm-13.15 4.682L58.572 6.143l12.353 12.303-2.192 2.192-10.16-10.11-10.11 10.11zm26.997 0L58.572 3.752 43.878 18.446l3.387 3.387-3.387 3.387 14.694 14.694L73.266 25.22l-3.337-3.387z" fill="#f15b3e"/>
  </g>
</svg>
